# xmcd
#
# Track frame offsets: 
#        151
#        15624
#        36808
#        65545
#        88054
#        105875
#        131875
#        159514
#        183086
#        208374
#        234451
#        251854
#        274584
#
# Disc length: 3869 seconds
#
# Revision: 1
# Processed by: cddbd v1.5.2PL0 Copyright (c) Steve Scherf et al.
# Submitted via: ExactAudioCopy v1.0b6
#
DISCID=b10f1b0d
DTITLE=Gerendás Péter - Ötvenes kő jubileumi lemez új dalokkal
DYEAR=2006
DGENRE=Rock
TTITLE0=Túl késõ
TTITLE1=Távol Afrikától
TTITLE2=Fából faragom a szót
TTITLE3=Wiener Walczer
TTITLE4=Hétfõ
TTITLE5=Csak néznek a fény felé
TTITLE6=Jákob
TTITLE7=Tûz és víz
TTITLE8=Néha a szenvedés nem fáj
TTITLE9=Fekete Orfeusz
TTITLE10=Valaki vár
TTITLE11=Bronzszínű Istenek
TTITLE12=Ötvenes kő
EXTD=
EXTT0=
EXTT1=
EXTT2=
EXTT3=
EXTT4=
EXTT5=
EXTT6=
EXTT7=
EXTT8=
EXTT9=
EXTT10=
EXTT11=
EXTT12=
PLAYORDER=
